<svg xmlns="http://www.w3.org/2000/svg" viewBox="0 0 1024 500">

  <!-- Background -->
  <rect width="1024" height="500" fill="#eef0f7"/>

  <!-- App name -->
  <text x="80" y="200" font-family="Arial, Segoe UI, sans-serif" font-weight="700" font-size="88" fill="#2e3a5c">The Tower</text>
  <text x="80" y="300" font-family="Arial, Segoe UI, sans-serif" font-weight="700" font-size="88" fill="#2e3a5c">Analyzer</text>

  <!-- Amber accent rule -->
  <rect x="80" y="322" width="88" height="7" rx="3" fill="#ffb830"/>

  <!-- Tagline -->
  <text x="80" y="372" font-family="Arial, Segoe UI, sans-serif" font-size="30" fill="#5a6a8c">Copy. Select. Submit.</text>

  <!-- Icon — original SVG elements scaled 0.74× and shifted to the right half -->
  <g transform="translate(591,61) scale(0.74)">

    <!-- Bar chart (decorative) -->
    <rect x="52"  y="378" width="38" height="56" rx="6" fill="#d2d8e8"/>
    <rect x="100" y="344" width="38" height="90" rx="6" fill="#b8bfd4"/>

    <!-- Tower body -->
    <rect x="152" y="272" width="208" height="212" rx="12" fill="#2e3a5c"/>

    <!-- Battlements -->
    <rect x="148" y="236" width="44" height="50" rx="8" fill="#2e3a5c"/>
    <rect x="206" y="236" width="44" height="50" rx="8" fill="#2e3a5c"/>
    <rect x="264" y="236" width="44" height="50" rx="8" fill="#2e3a5c"/>
    <rect x="320" y="236" width="44" height="50" rx="8" fill="#2e3a5c"/>

    <!-- Gate arch -->
    <path d="M220 484 L220 420 Q256 376 292 420 L292 484" fill="#eef0f7"/>

    <!-- Windows -->
    <rect x="168" y="308" width="44" height="48" rx="8" fill="#ffb830"/>
    <rect x="300" y="308" width="44" height="48" rx="8" fill="#ffb830"/>

    <!-- Magnifying glass ring -->
    <circle cx="390" cy="122" r="72" fill="none" stroke="#4e6ef5" stroke-width="28" stroke-linecap="round"/>

    <!-- Magnifying glass handle -->
    <line x1="441" y1="175" x2="490" y2="224" stroke="#4e6ef5" stroke-width="28" stroke-linecap="round"/>

    <!-- Trend line inside magnifier -->
    <polyline points="348,140 368,112 392,124 418,88" fill="none" stroke="#4e6ef5" stroke-width="18" stroke-linecap="round" stroke-linejoin="round"/>

  </g>

</svg>